<svg xmlns="http://www.w3.org/2000/svg" height="40" viewBox="0 96 960 960" width="40" fill="#FFBBFF"><path d="m480 935.333-46.666-41.999Q329 798.333 261 729.333t-108.333-123.5q-40.334-54.5-56.5-99.166Q80 462 80 416q0-91.333 61.333-152.667Q202.667 202 293.333 202q55.334 0 103.334 25.333 48 25.334 83.333 72.667 39.333-49.333 86.333-73.667Q613.333 202 666.667 202q90.666 0 152 61.333Q880 324.667 880 416q0 46-16.167 90.667-16.166 44.666-56.5 99.166Q767 660.333 699 729.333T526.666 893.334L480 935.333Z"/></svg>