<svg xmlns="http://www.w3.org/2000/svg" height="40" viewBox="0 96 960 960" width="40" fill="#e4ffba"><path d="m475.333 976 181.334-480h82.666L924 976h-86l-41.333-124.667H604L558 976h-82.667Zm151.334-194.667h142.666l-70-195.333h-2.666l-70 195.333ZM160 856l-55.333-55.333L308 597.333q-38-43.333-67.167-88Q211.667 464.667 190 416h86q17.333 34 37.833 63.333 20.5 29.334 47.5 60.667 44.667-47.333 74.334-97.833Q465.333 391.667 486 336H40v-80h280v-80h80v80h280v80H566q-21.667 69.667-58 136.333Q471.667 539 418.667 598.667L516 697.333l-30 81.334L360 656 160 856Z"/></svg>